<?xml version="1.0" standalone="no"?>
<!DOCTYPE svg PUBLIC "-//W3C//DTD SVG 20010904//EN"
 "http://www.w3.org/TR/2001/REC-SVG-20010904/DTD/svg10.dtd">
<svg version="1.0" xmlns="http://www.w3.org/2000/svg"
 width="896.000000pt" height="896.000000pt" viewBox="0 0 896.000000 896.000000"
 preserveAspectRatio="xMidYMid meet">
<metadata>
Created by potrace 1.14, written by Peter Selinger 2001-2017
</metadata>
<g transform="translate(0.000000,896.000000) scale(0.100000,-0.100000)"
fill="#000000" stroke="none">
<path d="M1666 7955 c-35 -18 -65 -51 -77 -84 -8 -19 -3 -33 22 -72 17 -27 35
-49 39 -49 5 0 12 -9 15 -21 4 -11 9 -19 11 -16 2 2 24 -16 49 -40 25 -24 53
-43 63 -43 30 -1 58 -32 102 -115 24 -44 76 -119 117 -168 76 -91 104 -138
135 -222 21 -58 30 -88 43 -147 21 -97 21 -102 29 -168 4 -30 9 -71 12 -90 2
-19 6 -104 9 -188 2 -85 6 -156 9 -159 2 -3 1 -16 -4 -29 -5 -13 -6 -26 0 -29
5 -3 5 -18 0 -35 -5 -18 -5 -32 1 -36 5 -3 7 -10 4 -15 -4 -5 -8 -84 -10 -176
-4 -158 -8 -232 -21 -428 -10 -146 -13 -180 -14 -180 -1 0 -3 -23 -5 -51 -4
-51 -10 -106 -19 -174 -11 -80 -18 -137 -22 -170 -2 -19 -6 -48 -9 -65 -2 -16
-7 -52 -11 -80 -3 -27 -8 -53 -10 -56 -1 -3 -6 -28 -9 -55 -4 -27 -11 -69 -17
-94 -5 -25 -11 -58 -13 -75 -4 -29 -41 -209 -51 -250 -3 -11 -7 -29 -9 -40 -7
-37 -55 -225 -81 -317 -14 -51 -27 -97 -28 -103 -1 -5 -11 -37 -21 -70 -10
-33 -19 -64 -21 -70 -1 -5 -16 -46 -32 -90 -17 -44 -36 -96 -43 -115 -6 -19
-22 -60 -34 -90 -33 -81 -38 -94 -39 -100 -2 -9 -68 -163 -92 -217 -13 -28
-24 -54 -24 -58 0 -9 -176 -366 -208 -421 -56 -96 -192 -281 -224 -305 -4 -3
-45 -41 -90 -85 -46 -44 -117 -107 -158 -140 -41 -32 -77 -61 -80 -64 -22 -22
-71 -49 -82 -44 -26 11 -174 204 -206 268 -36 71 -37 74 -57 187 -8 41 -21 92
-30 112 -8 20 -16 40 -16 44 0 5 -3 10 -6 13 -6 5 5 -152 13 -185 27 -119 37
-401 13 -415 -14 -9 -82 15 -87 30 -2 6 -9 10 -16 10 -7 0 -26 15 -43 32 -17
18 -40 41 -52 50 -20 17 -21 17 -21 -7 0 -13 -5 -27 -10 -30 -21 -13 -40 17
-40 61 0 24 -4 44 -8 44 -16 0 -72 -88 -79 -122 -8 -46 -20 -67 -59 -108 -47
-50 -63 -112 -62 -243 1 -60 4 -128 9 -151 4 -23 10 -61 13 -86 3 -25 8 -54
11 -65 2 -11 11 -50 19 -87 32 -144 82 -254 135 -295 54 -42 108 -66 191 -83
30 -6 69 -15 86 -19 36 -9 286 -7 364 4 46 6 251 44 325 60 234 52 279 76 434
228 116 113 166 179 181 237 7 25 25 57 41 72 51 50 62 73 54 124 -7 47 6 77
28 68 18 -6 61 36 86 83 11 23 25 72 30 108 11 73 20 90 55 99 19 5 23 12 21
36 -3 36 14 110 25 110 4 0 10 12 13 27 26 139 77 285 113 321 28 28 63 99 84
172 15 55 29 82 51 101 33 29 38 49 43 153 4 80 22 131 60 169 28 28 32 47 16
78 -8 15 -4 34 19 87 27 62 83 241 95 302 2 14 16 84 31 155 15 72 28 137 30
145 1 8 6 35 9 60 7 50 12 82 26 155 5 28 12 68 15 90 3 22 8 54 10 70 15 100
35 237 40 280 4 28 8 57 10 65 4 15 18 135 18 158 0 6 3 12 6 12 3 0 6 17 6
38 0 20 4 62 7 92 4 30 10 82 13 115 3 33 8 76 11 95 6 45 11 111 19 220 3 47
8 108 10 135 13 152 18 309 17 560 0 321 -3 380 -27 592 -12 98 -44 262 -66
337 -12 37 -22 73 -23 80 -7 50 -134 255 -211 342 -100 112 -144 149 -270 224
-92 54 -206 129 -215 140 -9 10 -194 132 -205 135 -5 1 -23 8 -40 15 -48 21
-126 23 -159 5z"/>
<path d="M6865 7935 c-27 -118 -63 -227 -104 -320 -15 -33 -28 -62 -28 -65 -2
-7 -23 -58 -49 -118 -13 -29 -24 -54 -24 -57 0 -2 -23 -52 -51 -112 -28 -59
-52 -114 -52 -120 0 -7 -3 -13 -6 -13 -5 0 -34 -57 -36 -70 -1 -7 -81 -172
-199 -410 -56 -113 -109 -223 -118 -245 -9 -22 -31 -71 -49 -110 -18 -38 -33
-72 -34 -75 0 -3 -13 -28 -28 -57 -15 -29 -27 -56 -27 -60 0 -5 14 -9 31 -9
41 -2 51 -14 56 -71 6 -55 -28 -150 -128 -362 -33 -67 -59 -127 -59 -132 0 -5
-4 -9 -10 -9 -5 0 -10 -6 -10 -12 -1 -21 -59 -92 -77 -94 -28 -4 -155 60 -291
149 -40 26 -77 47 -82 47 -6 0 -10 4 -10 8 0 4 -13 15 -29 25 -53 31 -123 101
-142 142 -12 25 -35 51 -61 68 -38 24 -156 68 -218 81 -14 3 -50 12 -82 20
-31 8 -67 17 -80 20 -12 3 -34 7 -48 10 -14 3 -45 10 -70 16 -73 18 -123 30
-150 34 -14 3 -58 12 -97 20 -40 9 -87 18 -105 21 -17 3 -34 8 -37 10 -9 5
-190 17 -241 16 -94 -3 -216 -17 -231 -27 -4 -2 -23 -6 -44 -10 -61 -9 -126
-32 -146 -50 -24 -21 -14 -41 41 -79 31 -21 51 -28 83 -27 44 2 97 -14 97 -29
0 -5 7 -9 15 -9 8 0 106 -91 218 -202 253 -252 468 -456 593 -565 52 -45 190
-171 221 -201 18 -18 33 -31 33 -29 0 13 324 -304 347 -339 12 -18 12 -30 3
-66 -13 -46 -105 -243 -126 -268 -7 -8 -13 -19 -14 -25 -1 -8 -72 -142 -105
-197 -5 -9 -25 -45 -44 -80 -19 -34 -42 -74 -51 -88 -10 -14 -55 -90 -101
-170 -46 -80 -87 -147 -91 -148 -5 -2 -8 -7 -8 -12 0 -8 -111 -202 -120 -210
-4 -3 -22 -32 -40 -65 -19 -33 -37 -61 -42 -63 -4 -2 -8 -7 -8 -12 0 -8 -103
-181 -146 -247 -31 -46 -44 -67 -51 -83 -4 -8 -11 -19 -15 -25 -5 -5 -43 -64
-84 -130 -137 -216 -260 -396 -276 -403 -5 -2 -8 -8 -8 -13 0 -5 -16 -26 -36
-46 -32 -32 -38 -34 -61 -24 -15 7 -43 14 -64 17 -35 5 -40 3 -59 -28 -11 -18
-20 -41 -20 -51 0 -11 -8 -32 -17 -48 -30 -50 -78 -18 -108 73 -18 51 -20 63
-40 192 -15 96 -32 156 -45 156 -22 0 -32 -65 -28 -184 1 -69 5 -126 8 -126 3
0 6 -19 6 -43 1 -23 4 -64 8 -92 4 -27 9 -68 12 -90 6 -47 25 -167 40 -247 13
-74 75 -241 107 -290 33 -52 89 -108 108 -108 18 0 106 -45 193 -99 49 -31 91
-56 95 -57 3 0 18 -6 34 -12 49 -21 80 -25 202 -28 102 -2 126 1 161 17 80 38
113 92 80 128 -20 22 -15 28 53 51 24 8 49 24 55 35 30 55 212 296 245 325 3
3 42 48 86 100 85 102 103 122 190 215 75 79 99 114 100 145 1 23 25 79 46
104 5 6 23 29 41 51 62 76 147 155 168 155 18 0 20 -4 14 -50 -5 -40 -3 -50 9
-50 15 0 27 25 33 72 2 15 12 36 22 46 45 45 89 120 267 457 32 61 62 112 67
113 4 2 8 8 8 14 0 20 108 172 160 226 28 28 48 52 44 52 -3 0 -2 6 4 13 6 7
12 24 14 37 9 60 90 170 125 170 16 0 187 -168 348 -344 55 -60 116 -126 135
-146 19 -21 78 -84 130 -140 113 -122 123 -133 315 -335 253 -265 296 -312
395 -425 150 -172 199 -224 264 -275 28 -22 86 -75 130 -118 85 -82 166 -147
185 -147 6 0 11 -4 11 -8 0 -28 195 -61 226 -38 27 21 15 122 -20 169 -15 20
-26 44 -24 54 5 27 40 22 55 -7 17 -35 51 -60 80 -60 34 0 80 26 88 50 8 24
43 27 52 3 3 -9 2 -34 -4 -55 -11 -42 2 -68 33 -68 18 0 74 59 74 77 0 6 20
41 45 77 25 37 45 78 45 92 0 14 -14 46 -31 70 -17 25 -32 53 -34 62 -2 9 -4
17 -6 17 -5 0 -7 52 -3 68 7 24 14 22 64 -22 27 -23 49 -36 54 -31 11 11 -17
89 -42 116 -23 25 -41 70 -45 114 -5 49 -20 74 -96 155 -92 99 -95 104 -151
213 -31 60 -69 115 -98 144 -26 26 -81 80 -122 120 -42 40 -90 95 -108 122
-25 36 -36 46 -45 37 -19 -19 -37 -12 -74 26 -45 49 -146 201 -150 227 -5 29
-21 45 -74 71 -40 21 -124 105 -104 105 4 0 3 6 -3 13 -5 6 -13 26 -17 44 -4
21 -11 30 -20 27 -17 -7 -61 32 -73 66 -8 21 -93 142 -112 160 -3 3 -27 32
-55 65 -27 33 -61 72 -75 86 -14 15 -61 66 -105 115 -44 48 -100 109 -125 135
-37 39 -158 172 -195 214 -5 6 -23 25 -39 42 l-28 31 27 29 c29 31 343 657
461 920 59 132 139 391 159 518 3 16 10 53 15 80 5 28 11 64 14 82 2 17 7 37
11 42 3 6 1 11 -5 11 -6 0 -9 4 -6 9 8 13 16 67 20 146 5 78 8 187 6 195 0 3
-3 30 -5 60 -5 64 -12 124 -20 160 -2 14 -9 48 -15 75 -6 28 -12 60 -14 72 -3
12 -9 30 -14 40 -6 10 -11 21 -11 25 -7 44 -15 69 -22 74 -5 3 -9 12 -9 19 0
8 -25 67 -56 132 -66 138 -106 241 -99 253 7 11 -56 65 -102 86 -98 46 -157
89 -248 180 -66 67 -75 77 -125 149 -40 57 -43 61 -69 95 l-19 25 -7 -30z"/>
</g>
</svg>
